# Blender v2.75 (sub 0) OBJ File: ''
# www.blender.org
mtllib Bird.mtl
o n0b0
v -0.636735 0.002195 -0.020098
v -0.636735 0.002195 -0.020098
v 0.636731 0.002316 -0.020220
v 0.636731 0.002316 -0.020220
v -0.670916 -0.020778 -0.133867
v -0.670916 -0.020778 -0.133867
v 0.670894 -0.020651 -0.133995
v 0.670894 -0.020651 -0.133995
v -0.000016 0.065709 -0.100636
v -0.000016 0.065709 -0.100636
v 0.000001 0.064844 0.073026
v 0.000001 0.064844 0.073026
v -0.325798 0.068954 -0.120723
v -0.325798 0.068954 -0.120723
v -0.325791 0.047197 -0.091191
v -0.325753 0.050656 0.102362
v -0.325753 0.050656 0.102362
v -0.325758 0.068974 0.081268
v 0.325762 0.069017 -0.120786
v 0.325762 0.069017 -0.120786
v 0.325761 0.069036 0.081206
v 0.325763 0.050719 0.102300
v 0.325763 0.050719 0.102300
v 0.325764 0.047259 -0.091253
v -0.503188 0.036360 -0.089876
v -0.503188 0.036360 -0.089876
v -0.503161 0.032231 0.047181
v -0.503156 0.021414 0.067155
v -0.503156 0.021414 0.067155
v -0.503181 0.022335 -0.060345
v 0.503164 0.036456 -0.089972
v 0.503164 0.036456 -0.089972
v 0.503163 0.032327 0.047084
v 0.503165 0.021510 0.067058
v 0.503165 0.021510 0.067058
v 0.503165 0.022431 -0.060441
v -0.145171 0.055153 -0.109639
v -0.145171 0.055153 -0.109639
v -0.145138 0.055169 0.060381
v -0.145131 0.029070 0.080357
v -0.145131 0.029070 0.080357
v -0.145131 0.029070 0.080357
v -0.145163 0.029985 -0.080107
v 0.145140 0.055181 -0.109667
v 0.145140 0.055181 -0.109667
v 0.145139 0.055197 0.060354
v 0.145141 0.029097 0.080329
v 0.145141 0.029097 0.080329
v 0.145141 0.029097 0.080329
v 0.145142 0.030013 -0.080134
v -0.051146 0.061484 -0.087558
v -0.051146 0.061484 -0.087558
v -0.051146 0.061484 -0.087558
v -0.051126 0.045095 0.064378
v -0.051126 0.045095 0.064378
v -0.051126 0.045095 0.064378
v -0.051126 0.045095 0.064378
v -0.061287 0.018037 0.076058
v -0.061287 0.018037 0.076058
v -0.072581 0.018033 -0.063797
v 0.051118 0.061494 -0.087567
v 0.051118 0.061494 -0.087567
v 0.051118 0.061494 -0.087567
v 0.051130 0.045105 0.064369
v 0.051130 0.045105 0.064369
v 0.051130 0.045105 0.064369
v 0.051130 0.045105 0.064369
v 0.061298 0.018049 0.076046
v 0.061298 0.018049 0.076046
v 0.072566 0.018046 -0.063811
v 0.050460 -0.020104 -0.063809
v 0.050460 -0.020104 -0.063809
v 0.041483 -0.015435 0.076048
v -0.041466 -0.015443 0.076056
v -0.050468 -0.020113 -0.063800
v -0.050468 -0.020113 -0.063800
v 0.012431 0.004581 0.182174
v 0.012431 0.004581 0.182174
v 0.012431 0.004581 0.182174
v 0.000017 0.013784 0.186872
v 0.000017 0.013784 0.186872
v -0.012397 0.004579 0.182176
v -0.012397 0.004579 0.182176
v -0.012397 0.004579 0.182176
v -0.019681 -0.008721 0.172093
v -0.019681 -0.008721 0.172093
v 0.019715 -0.008717 0.172090
v 0.019715 -0.008717 0.172090
v 0.047060 0.011210 -0.187965
v 0.047060 0.011210 -0.187965
v 0.047060 0.011210 -0.187965
v -0.047098 0.011201 -0.187956
v -0.047098 0.011201 -0.187956
v -0.047098 0.011201 -0.187956
v -0.105155 -0.013197 -0.511109
v -0.000027 0.025274 -0.252467
v -0.000027 0.025274 -0.252467
v 0.105060 -0.013177 -0.511130
v -0.000018 0.001295 -0.187961
v -0.000018 0.001295 -0.187961
v -0.000002 -0.039869 -0.057441
v -0.000002 -0.039869 -0.057441
v 0.000011 -0.034376 0.076052
v 0.000018 -0.020137 0.169098
v 0.000018 -0.020137 0.169098
v 0.000029 -0.053858 0.252154
v -0.036015 0.032460 0.121428
v -0.036015 0.032460 0.121428
v 0.000008 0.048661 0.129949
v 0.036032 0.032467 0.121421
v 0.036032 0.032467 0.121421
v 0.046605 0.004666 0.124067
v -0.046583 0.004657 0.124076
vt 0.808228 0.577393
vt 0.802490 0.615295
vt 0.803406 0.584656
vt 0.804077 0.577393
vt 0.801208 0.534668
vt 0.791870 0.534668
vt 0.791870 0.503906
vt 0.782471 0.534668
vt 0.784790 0.503906
vt 0.781372 0.519287
vt 0.784058 0.503906
vt 0.782166 0.521484
vt 0.440308 0.919373
vt 0.451233 0.879944
vt 0.451233 0.922546
vt 0.440308 0.882690
vt 0.420288 0.883057
vt 0.420288 0.878174
vt 0.381714 0.877930
vt 0.381714 0.872803
vt 0.343872 0.875854
vt 0.793518 0.277039
vt 0.920288 0.049316
vt 0.826050 0.224548
vt 0.853516 0.194824
vt 0.805237 0.274719
vt 0.951355 0.068115
vt 0.808594 0.286194
vt 0.839966 0.232971
vt 0.678223 0.580139
vt 0.718323 0.526672
vt 0.678223 0.530457
vt 0.718323 0.572327
vt 0.718323 0.581299
vt 0.759094 0.582336
vt 0.759094 0.591370
vt 0.780334 0.584656
vt 0.779602 0.577393
vt 0.778015 0.534668
vt 0.775452 0.577393
vt 0.791870 0.578918
vt 0.958435 0.032104
vt 0.940857 0.057495
vt 0.944214 0.033325
vt 0.958435 0.054504
vt 0.976074 0.057495
vt 0.979431 0.081604
vt 0.805725 0.534668
vt 0.802307 0.519287
vt 0.803406 0.539001
vt 0.801514 0.521484
vt 0.640381 0.598816
vt 0.648071 0.552551
vt 0.678223 0.589172
vt 0.315369 0.893616
vt 0.343872 0.923035
vt 0.308044 0.930725
vt 0.343872 0.880737
vt 0.371765 0.222656
vt 0.384338 0.314270
vt 0.385620 0.314270
vt 0.371765 0.314270
vt 0.359192 0.314270
vt 0.937439 0.081604
vt 0.958435 0.076904
vt 0.780334 0.539001
vt 0.759094 0.533386
vt 0.371765 0.310303
vt 0.357849 0.314270
vt 0.381714 0.916687
vt 0.798950 0.503906
vt 0.799683 0.503906
vt 0.485718 0.500610
vt 0.814453 -0.194946
vt 0.485718 -0.166626
vt 0.771057 0.500610
vt 0.200378 0.500610
vt 0.156921 -0.194946
vt 0.420288 0.924805
vt 0.462158 0.919373
vt 0.462158 0.882690
vt 0.781250 0.615295
vt 0.791870 0.635010
vt 0.791870 0.615295
vt 0.741272 0.659668
vt 0.635071 0.536865
vt 0.729797 0.565369
vt 0.972656 0.033325
vt 0.482239 0.878174
vt 0.482239 0.883057
vt 0.520752 0.877930
vt 0.520752 0.872803
vt 0.558655 0.880737
vt 0.558655 0.875854
vt 0.587158 0.893616
vt 0.520752 0.916687
vt 0.558655 0.923035
vt 0.594421 0.930725
vt 0.824646 0.533386
vt 0.824646 0.582336
vt 0.824646 0.591370
vt 0.865417 0.581299
vt 0.865417 0.526672
vt 0.865417 0.572327
vt 0.905457 0.589172
vt 0.905457 0.530457
vt 0.905457 0.580139
vt 0.943359 0.598816
vt 0.482239 0.924805
vt 0.935608 0.552551
vt 0.868225 0.565369
vt 0.962952 0.536865
vt 0.856750 0.659668
vn 0.917500 0.339600 -0.207200
vn 0.855600 -0.495800 -0.148500
vn 0.863000 -0.500100 0.072100
vn 0.414800 -0.908100 0.056900
vn 0.411500 -0.900900 0.137800
vn -0.411300 -0.901000 0.137900
vn -0.475000 -0.863800 0.168200
vn -0.706900 -0.676100 0.207700
vn -0.858500 0.087100 0.505300
vn -0.806600 0.351800 0.475100
vn -0.081100 0.996700 0.005000
vn -0.373100 0.922400 0.099500
vn 0.101500 0.989100 0.106700
vn 0.031400 0.607500 0.793700
vn 0.137000 0.602100 0.786600
vn 0.167700 0.744400 0.646400
vn -0.246700 0.731700 0.635400
vn -0.871900 -0.451000 0.190700
vn 0.096700 0.978000 -0.184800
vn -0.144100 0.956200 -0.254600
vn -0.269500 0.930600 -0.247800
vn 0.121000 0.980100 -0.157400
vn 0.872100 -0.450800 0.190500
vn 0.164000 -0.986400 -0.007200
vn 0.141800 -0.989700 0.017700
vn 0.009700 -0.805100 -0.593100
vn -0.040300 -0.804400 -0.592700
vn -0.018400 -0.761000 -0.648500
vn 0.199500 -0.745800 -0.635600
vn -0.863000 -0.500300 0.069700
vn -0.858300 -0.508100 0.072200
vn -0.370000 -0.927400 0.054800
vn -0.415000 -0.909100 0.037400
vn 0.368600 -0.928800 0.038200
vn -0.628000 0.585300 0.512800
vn -0.452300 0.760500 0.466000
vn 0.452200 0.760500 0.465900
vn 0.449600 0.839600 0.305000
vn 0.858500 -0.508100 0.069200
vn 0.854300 -0.505600 0.120500
vn 0.802900 0.463500 0.374800
vn 0.877500 0.363500 0.312700
vn 0.014600 -0.981000 0.193700
vn 0.251800 -0.967700 -0.007000
vn 0.387400 -0.832700 -0.395600
vn 0.091000 -0.899500 -0.427200
vn -0.296500 0.949500 -0.102600
vn -0.233300 0.972000 0.029300
vn -0.400900 0.805500 0.436300
vn -0.263900 0.848100 0.459400
vn 0.907200 0.229600 0.352500
vn 0.510900 -0.796500 -0.323400
vn -0.510800 -0.796600 -0.323300
vn -0.449700 0.839500 0.305000
vn -0.385500 0.887500 0.252400
vn 0.385400 0.887600 0.252300
vn -0.854200 -0.505700 0.120700
vn -0.802900 0.463400 0.375000
vn -0.877500 0.363300 0.312900
vn 0.105800 -0.516800 -0.849600
vn -0.161300 -0.986900 -0.005600
vn -0.129900 -0.991500 0.010500
vn 0.618500 0.545700 0.565300
vn -0.618500 0.545600 0.565500
vn -0.095900 -0.995200 0.017800
vn -0.119300 -0.992800 -0.005600
vn -0.175600 0.984000 0.029700
vn -0.202800 0.979200 -0.000100
vn 0.707100 -0.676000 0.207500
vn 0.475200 -0.863700 0.168100
vn 0.806600 0.352000 0.474900
vn 0.858600 0.087300 0.505100
vn 0.318100 -0.904100 -0.285200
vn 0.199800 -0.948800 -0.244800
vn -0.327600 -0.914000 -0.239400
vn -0.196800 -0.935100 -0.294900
vn -0.067200 0.997700 -0.000100
vn 0.076200 0.997100 -0.000100
vn 0.373000 0.922500 0.099500
vn 0.080900 0.996700 0.005000
vn -0.917600 0.339400 -0.207000
vn -0.855600 -0.496000 -0.148300
vn -0.193500 -0.919600 -0.341800
vn 0.193600 -0.919600 -0.341900
vn 0.095400 0.364100 0.926500
vn 0.628000 0.585400 0.512700
vn -0.907200 0.229400 0.352700
vn -0.307100 -0.951500 0.016700
vn 0.307300 -0.951500 0.016600
vn -0.031300 0.607500 0.793700
vn -0.136900 0.602000 0.786600
vn -0.167700 0.744300 0.646400
vn 0.271700 0.726600 0.631000
vn 0.232800 0.855200 0.463100
vn 0.400800 0.805600 0.436200
vn -0.076400 0.997100 -0.000100
vn 0.180500 0.983600 -0.000100
vn 0.208000 0.977700 0.029500
vn 0.328800 0.944000 0.028400
vn 0.141700 0.977700 -0.154800
vn 0.130100 -0.991400 0.010500
vn 0.161500 -0.986900 -0.005600
vn -0.020400 -0.761000 -0.648500
vn 0.018400 -0.761000 -0.648500
vn 0.119500 -0.992800 -0.005700
vn 0.096100 -0.995200 0.017800
vn 0.040300 -0.804400 -0.592700
vn -0.044700 -0.804300 -0.592600
vn -0.159000 -0.987100 0.017600
vn -0.137400 -0.990500 -0.007100
vn -0.051800 -0.902100 -0.428400
vn -0.387300 -0.832800 -0.395500
vn -0.101600 0.989100 0.106700
vn 0.067000 0.997800 -0.000100
vn -0.188400 -0.972100 0.139600
vn -0.146800 -0.989100 -0.007100
vn -0.095300 0.364100 0.926500
vn -0.225800 -0.550800 -0.803500
usemtl m0
s off
f 70/1/1 90/2/1 62/3/1
f 90/2/2 70/1/2 71/4/2
f 73/5/3 71/4/3 70/1/3
f 71/4/4 73/5/4 103/6/4
f 104/7/5 103/6/5 73/5/5
f 103/6/6 104/7/6 74/8/6
f 85/9/7 74/8/7 104/7/7
f 74/8/8 85/9/8 113/10/8
f 84/11/9 113/10/9 85/9/9
f 113/10/10 84/11/10 108/12/10
f 51/13/11 11/14/11 9/15/11
f 11/14/12 51/13/12 54/16/12
f 39/17/13 54/16/13 51/13/13
f 54/16/14 39/17/14 40/18/14
f 18/19/15 40/18/15 39/17/15
f 40/18/16 18/19/16 16/20/16
f 28/21/17 16/20/17 18/19/17
f 53/22/18 95/23/18 93/24/18
f 95/23/19 53/22/19 96/25/19
f 10/26/20 96/25/20 53/22/20
f 96/25/21 10/26/21 98/27/21
f 63/28/22 98/27/22 10/26/22
f 98/27/23 63/28/23 89/29/23
f 30/30/24 17/31/24 29/32/24
f 17/31/25 30/30/25 15/33/25
f 14/34/26 15/33/26 30/30/26
f 15/33/27 14/34/27 43/35/27
f 38/36/28 43/35/28 14/34/28
f 43/35/29 38/36/29 52/37/29
f 75/38/30 58/39/30 60/40/30
f 58/39/31 75/38/31 74/8/31
f 101/41/32 74/8/32 75/38/32
f 74/8/33 101/41/33 103/6/33
f 71/4/34 103/6/34 101/41/34
f 81/42/35 107/43/35 83/44/35
f 107/43/36 81/42/36 109/45/36
f 110/46/37 109/45/37 81/42/37
f 109/45/38 110/46/38 66/47/38
f 69/48/39 73/5/39 70/1/39
f 73/5/40 69/48/40 112/49/40
f 67/50/41 112/49/41 69/48/41
f 112/49/42 67/50/42 111/51/42
f 6/52/43 29/32/43 2/53/43
f 29/32/44 6/52/44 30/30/44
f 26/54/45 30/30/45 6/52/45
f 30/30/46 26/54/46 14/34/46
f 1/55/47 25/56/47 5/57/47
f 25/56/48 1/55/48 27/58/48
f 1/55/49 28/21/49 27/58/49
f 27/58/50 28/21/50 18/19/50
f 106/59/51 87/60/51 77/61/51
f 87/60/52 106/59/52 105/62/52
f 86/63/53 105/62/53 106/59/53
f 109/45/54 55/64/54 107/43/54
f 55/64/55 109/45/55 12/65/55
f 66/47/56 12/65/56 109/45/56
f 113/10/57 58/39/57 74/8/57
f 58/39/58 113/10/58 56/66/58
f 108/12/59 56/66/59 113/10/59
f 60/40/60 43/35/60 52/37/60
f 43/35/61 60/40/61 41/67/61
f 58/39/62 41/67/62 60/40/62
f 80/68/63 106/59/63 77/61/63
f 106/59/64 80/68/64 82/69/64
f 43/35/65 17/31/65 15/33/65
f 17/31/66 43/35/66 41/67/66
f 27/58/67 13/70/67 25/56/67
f 13/70/68 27/58/68 18/19/68
f 88/71/69 73/5/69 112/49/69
f 73/5/70 88/71/70 104/7/70
f 79/72/71 112/49/71 111/51/71
f 112/49/72 79/72/72 88/71/72
f 99/73/73 72/74/73 102/75/73
f 72/74/74 99/73/74 91/76/74
f 92/77/75 102/75/75 76/78/75
f 102/75/76 92/77/76 99/73/76
f 37/79/77 39/17/77 51/13/77
f 39/17/78 37/79/78 13/70/78
f 61/80/79 11/14/79 64/81/79
f 11/14/80 61/80/80 9/15/80
f 94/82/81 60/40/81 52/37/81
f 60/40/82 94/82/82 75/38/82
f 97/83/83 100/84/83 94/82/83
f 100/84/84 97/83/84 90/2/84
f 13/70/78 18/19/78 39/17/78
f 57/85/85 42/86/85 59/87/85
f 81/42/86 78/88/86 110/46/86
f 86/63/87 106/59/87 82/69/87
f 89/29/88 96/25/88 98/27/88
f 96/25/89 93/24/89 95/23/89
f 47/89/90 46/90/90 64/81/90
f 46/90/91 47/89/91 21/91/91
f 22/92/92 21/91/92 47/89/92
f 21/91/93 22/92/93 33/93/93
f 34/94/94 33/93/94 22/92/94
f 33/93/95 34/94/95 3/95/95
f 21/91/96 19/96/96 46/90/96
f 19/96/97 21/91/97 31/97/97
f 33/93/98 31/97/98 21/91/98
f 31/97/99 33/93/99 7/98/99
f 3/95/100 7/98/100 33/93/100
f 70/1/101 48/99/101 69/48/101
f 48/99/102 70/1/102 50/100/102
f 45/101/103 50/100/103 70/1/103
f 50/100/104 45/101/104 20/102/104
f 50/100/105 23/103/105 48/99/105
f 23/103/106 50/100/106 24/104/106
f 20/102/107 24/104/107 50/100/107
f 24/104/108 20/102/108 32/105/108
f 24/104/109 35/106/109 23/103/109
f 35/106/110 24/104/110 36/107/110
f 32/105/111 36/107/111 24/104/111
f 36/107/112 32/105/112 8/108/112
f 46/90/113 61/80/113 64/81/113
f 61/80/114 46/90/114 44/109/114
f 19/96/96 44/109/96 46/90/96
f 4/110/115 36/107/115 8/108/115
f 36/107/116 4/110/116 35/106/116
f 68/111/117 49/112/117 65/113/117
f 70/1/118 62/3/118 45/101/118
